<svg width="43" height="33" viewBox="0 0 43 33" fill="none" xmlns="http://www.w3.org/2000/svg">
  <path d="M9.38425 32.0408C6.99014 32.0406 4.68718 31.1227 2.94926 29.4761C1.21133 27.8295 0.170635 25.5794 0.0413258 23.1888C-0.0879838 20.7982 0.703925 18.4489 2.2541 16.6244C3.80428 14.8 5.9948 13.6391 8.37491 13.3806C7.67063 10.6327 8.08679 7.71764 9.53182 5.27661C10.9769 2.83558 13.3324 1.06857 16.0803 0.364297C18.8281 -0.339979 21.7432 0.0761732 24.1842 1.52121C26.6253 2.96624 28.3923 5.32178 29.0965 8.06964C30.731 7.84002 32.3952 7.94917 33.9857 8.39028C35.5762 8.8314 37.0589 9.59505 38.3416 10.6337C39.6243 11.6724 40.6795 12.9639 41.4417 14.4279C42.2039 15.8919 42.6567 17.4971 42.7719 19.1435C42.8872 20.79 42.6624 22.4426 42.1116 23.9985C41.5609 25.5544 40.6958 26.9803 39.5703 28.1876C38.4449 29.3948 37.083 30.3576 35.5695 31.016C34.056 31.6744 32.4232 32.0143 30.7727 32.0147L9.38425 32.0408Z" fill="#FDFEFF"/>
</svg>