<svg width="37" height="33" viewBox="0 0 37 33" fill="none" xmlns="http://www.w3.org/2000/svg">
  <path d="M9.83802 32.9917C8.73982 32.9612 7.69501 32.679 6.70358 32.1452C5.71215 31.6113 4.77411 30.8258 3.88945 29.7886C2.66923 28.3243 1.71593 26.5779 1.02956 24.5493C0.343187 22.5207 0 20.4387 0 18.3033C0 15.7713 0.480461 13.3919 1.44138 11.165C2.40231 8.93811 3.70642 7.00101 5.35371 5.35371C7.00101 3.70642 8.93811 2.40231 11.165 1.44138C13.3919 0.480461 15.7713 -4.76837e-07 18.3033 -4.76837e-07C20.8352 -4.76837e-07 23.2147 0.480461 25.4416 1.44138C27.6685 2.40231 29.6056 3.72167 31.2529 5.39947C32.9002 7.07727 34.2043 9.04488 35.1652 11.3023C36.1261 13.5597 36.6066 15.9849 36.6066 18.5778C36.6066 20.8658 36.2405 23.0316 35.5084 25.0755C34.7763 27.1194 33.7238 28.8429 32.3511 30.2462C31.4664 31.1614 30.5436 31.8477 29.5827 32.3053C28.6218 32.7629 27.638 32.9917 26.6313 32.9917C26.0822 32.9917 25.5331 32.923 24.984 32.7858C24.4349 32.6485 23.8858 32.4426 23.3367 32.168L20.7742 30.8868C20.3777 30.6733 19.9735 30.5207 19.5616 30.4292C19.1498 30.3377 18.7304 30.2919 18.3033 30.2919C17.8762 30.2919 17.4568 30.3377 17.0449 30.4292C16.6331 30.5207 16.2289 30.6733 15.8323 30.8868L13.2699 32.168C12.6903 32.4731 12.1183 32.6943 11.554 32.8315C10.9896 32.9688 10.4176 33.0222 9.83802 32.9917ZM9.97529 30.2462C10.3109 30.2462 10.654 30.2004 11.0049 30.1089C11.3557 30.0174 11.6989 29.8954 12.0344 29.7428L14.5969 28.4616C15.1765 28.1871 15.7713 27.9735 16.3814 27.821C16.9916 27.6685 17.6169 27.5922 18.2575 27.5922C18.8981 27.5922 19.5235 27.6608 20.1336 27.7981C20.7437 27.9354 21.3538 28.1566 21.9639 28.4616L24.5722 29.7428C24.9077 29.8954 25.2433 30.0174 25.5788 30.1089C25.9144 30.2004 26.25 30.2462 26.5855 30.2462C27.2872 30.2462 27.9659 30.0784 28.6218 29.7428C29.2776 29.4073 29.9106 28.9039 30.5207 28.2328C31.5884 27.0736 32.4121 25.6475 32.9917 23.9544C33.5713 22.2614 33.8611 20.4692 33.8611 18.5778C33.8611 14.124 32.3587 10.3719 29.3539 7.32132C26.3491 4.27077 22.6656 2.74549 18.3033 2.74549C13.941 2.74549 10.2575 4.28602 7.25268 7.36707C4.24789 10.4481 2.74549 14.2156 2.74549 18.6694C2.74549 20.5912 3.0353 22.3834 3.6149 24.0459C4.1945 25.7085 5.01815 27.1194 6.08584 28.2786C6.69595 28.9497 7.32132 29.4454 7.96193 29.7657C8.60255 30.086 9.27367 30.2462 9.97529 30.2462ZM17.5712 19.4472C17.9067 19.6303 18.2347 19.6913 18.555 19.6303C18.8753 19.5693 19.1574 19.4015 19.4015 19.1269L24.1146 13.1326C24.4807 13.5597 24.801 14.0096 25.0755 14.4825C25.3501 14.9553 25.5636 15.4663 25.7161 16.0154H28.5531C28.004 13.6054 26.7762 11.6302 24.8696 10.0897C22.963 8.54916 20.7742 7.7789 18.3033 7.7789C15.8323 7.7789 13.636 8.54916 11.7141 10.0897C9.79226 11.6302 8.57204 13.6054 8.05345 16.0154H10.8905C11.4091 14.3681 12.3471 13.0411 13.7046 12.0344C15.0621 11.0277 16.595 10.5244 18.3033 10.5244C18.9439 10.5244 19.5769 10.6007 20.2023 10.7532C20.8276 10.9057 21.4148 11.1345 21.9639 11.4396L17.2051 17.4796C16.961 17.8152 16.8772 18.1736 16.9534 18.555C17.0297 18.9363 17.2356 19.2337 17.5712 19.4472Z" fill="white"/>
</svg>