<svg width="35" height="33" viewBox="0 0 35 33" fill="none" xmlns="http://www.w3.org/2000/svg">
  <path d="M13.934 12.2634L1.96639 12.2781C1.70912 12.2784 1.45447 12.2278 1.21681 12.1293C0.979156 12.0308 0.763299 11.8863 0.581708 11.704C0.400117 11.5218 0.256116 11.3054 0.158447 11.0674C0.0607778 10.8294 0.0113531 10.5744 0.0125886 10.3172C0.0107245 10.0599 0.0595261 9.80483 0.156613 9.56659C0.2537 9.32834 0.397172 9.11162 0.578318 8.92894C0.759463 8.74626 0.974966 8.60119 1.21238 8.50209C1.4498 8.403 1.70432 8.35185 1.96159 8.35154L13.9292 8.33691C14.5102 8.33621 15.0674 8.10551 15.4788 7.69527C15.8903 7.28503 16.1226 6.7286 16.125 6.14759C16.1243 5.56454 15.8918 5.00568 15.4791 4.59391C15.0663 4.18214 14.5069 3.95119 13.9238 3.9519L10.3031 3.95632C9.78245 3.95696 9.28279 3.75072 8.91416 3.38299C8.54552 3.01525 8.33792 2.51617 8.33729 1.99548C8.33665 1.47479 8.54303 0.975166 8.91076 0.606533C9.2785 0.237901 9.77765 0.0304433 10.2983 0.0298071L13.919 0.0253836C15.5414 0.0265155 17.0973 0.671297 18.2448 1.8182C19.3923 2.9651 20.0379 4.52041 20.0399 6.1428C20.0387 7.76316 19.3954 9.31705 18.251 10.4642C17.1067 11.6114 15.5543 12.2583 13.934 12.2634Z" fill="#FDFEFF"/>
  <path d="M28.2835 17.9005L1.97329 17.9327C1.71603 17.933 1.46138 17.8824 1.22372 17.7839C0.986064 17.6854 0.770207 17.5409 0.588616 17.3586C0.407025 17.1764 0.263024 16.96 0.165355 16.722C0.0676858 16.484 0.0182611 16.2291 0.0194966 15.9718C0.0176325 15.7145 0.0664341 15.4595 0.163521 15.2212C0.260608 14.983 0.40408 14.7663 0.585226 14.5836C0.766371 14.4009 0.981874 14.2558 1.21929 14.1567C1.45671 14.0576 1.71123 14.0065 1.9685 14.0062L28.2787 13.974C28.9283 13.9732 29.5509 13.7152 30.0108 13.2564C30.4707 12.7976 30.7302 12.1754 30.7325 11.5258C30.7286 10.8762 30.4676 10.2545 30.0066 9.79687C29.5456 9.33919 28.9223 9.0827 28.2727 9.0835L24.9103 9.08761C24.3897 9.08824 23.89 8.88201 23.5214 8.51427C23.1527 8.14654 22.9454 7.64742 22.9448 7.12673C22.9445 6.86891 22.9947 6.61357 23.0931 6.37526C23.1915 6.13694 23.3359 5.92035 23.518 5.73782C23.7 5.55529 23.9163 5.41039 24.1543 5.31144C24.3924 5.21248 24.6477 5.16141 24.9055 5.16109L28.3264 5.15691C29.1632 5.15589 29.9921 5.31968 30.7655 5.63895C31.539 5.95822 32.2419 6.42669 32.8343 7.01764C33.4267 7.60859 33.897 8.31046 34.2182 9.08312C34.5393 9.85579 34.7052 10.6841 34.7062 11.5209C34.7073 12.3626 34.5413 13.1962 34.2184 13.9735C33.8955 14.7508 33.4218 15.4565 32.8246 16.0496C32.2274 16.6428 31.5186 17.1118 30.7392 17.4295C29.9597 17.7472 29.1252 17.9073 28.2835 17.9005Z" fill="#FDFEFF"/>
  <path d="M17.685 32.0208L12.7122 32.0269C12.1915 32.0275 11.6918 31.8213 11.3232 31.4535C10.9546 31.0858 10.747 30.5867 10.7463 30.066C10.746 29.8088 10.7967 29.554 10.8952 29.3163C10.9938 29.0786 11.1381 28.8628 11.3204 28.6812C11.5026 28.4996 11.719 28.3559 11.957 28.2582C12.195 28.1605 12.4501 28.1109 12.7074 28.1121L17.6802 28.106C18.2799 28.1022 18.8536 27.8611 19.276 27.4354C19.6985 27.0097 19.9352 26.4341 19.9345 25.8344C19.9337 25.2357 19.6954 24.6619 19.2715 24.2391C18.8477 23.8163 18.2733 23.5792 17.6747 23.58L1.98022 23.5991C1.46265 23.5998 0.96599 23.3948 0.599565 23.0292C0.23314 22.6637 0.0270685 22.1676 0.0264362 21.65C0.0245721 21.3928 0.0733737 21.1377 0.170461 20.8994C0.267548 20.6612 0.41102 20.4445 0.592165 20.2618C0.773311 20.0791 0.988814 19.9341 1.22623 19.835C1.46365 19.7359 1.71817 19.6847 1.97544 19.6844L17.6699 19.6652C19.3079 19.6632 20.8797 20.3112 22.0404 21.4669C23.2012 22.6226 23.856 24.1916 23.8611 25.8296C23.86 27.4686 23.2092 29.0405 22.0517 30.2009C20.8941 31.3613 19.324 32.0157 17.685 32.0208Z" fill="#FDFEFF"/>
</svg>